<svg width="655" height="360" viewBox="0 0 655 360" fill="none" xmlns="http://www.w3.org/2000/svg">
<path d="M0 214.104H177.153V355.742H2.00001C0.895438 355.742 0 354.846 0 353.742V214.104Z" fill="#E3706F"/>
<path d="M177.153 215.202H655V287.119V357.035C655 358.14 654.105 359.035 653 359.035H177.153V215.202Z" fill="#BFF1FF"/>
<path d="M0 2C0 0.895432 0.89543 0 2 0H29.137V215.202H0V2Z" fill="#408D8A"/>
<path d="M392.767 0H653C654.105 0 655 0.895431 655 2V215.202H392.767V0Z" fill="#711EC4"/>
<rect x="29.137" width="363.63" height="215.202" fill="#F4B040"/>
<rect x="144" y="72" width="366.815" height="214.655" rx="2" fill="#F1F1F1"/>
<path d="M293.638 196.65C293.638 193.359 296.306 190.692 299.596 190.692V190.692C302.886 190.692 305.553 193.359 305.553 196.65V213.33H293.638V196.65Z" fill="#0A3954"/>
<path d="M312.702 178.777C312.702 175.487 315.369 172.82 318.66 172.82V172.82C321.95 172.82 324.617 175.487 324.617 178.777V213.331H312.702V178.777Z" fill="#0A3954"/>
<path d="M331.766 163.288C331.766 159.998 334.433 157.331 337.723 157.331V157.331C341.014 157.331 343.681 159.998 343.681 163.288V213.331H331.766V163.288Z" fill="#0A3954"/>
<path d="M350.83 149.232C350.83 145.942 353.497 143.275 356.787 143.275V143.275C360.077 143.275 362.745 145.942 362.745 149.232V213.573H350.83V149.232Z" fill="#0A3954"/>
<path d="M371.085 134.934C371.085 131.644 373.752 128.977 377.043 128.977V128.977C380.333 128.977 383 131.644 383 134.934V213.573H371.085V134.934Z" fill="#0A3954"/>
<path d="M378.234 219.288C380.866 219.288 383 221.422 383 224.054V224.054C383 226.686 380.866 228.82 378.234 228.82L275.766 228.82C273.134 228.82 271 226.686 271 224.054V224.054C271 221.422 273.134 219.288 275.766 219.288L378.234 219.288Z" fill="#0A3954"/>
</svg>
