<svg width="655" height="360" viewBox="0 0 655 360" fill="none" xmlns="http://www.w3.org/2000/svg">
<path d="M0 214.104H177.153V355.742H2.00001C0.895438 355.742 0 354.846 0 353.742V214.104Z" fill="#E3706F"/>
<path d="M177.153 215.202H655V287.119V357.035C655 358.14 654.105 359.035 653 359.035H177.153V215.202Z" fill="#BFF1FF"/>
<path d="M0 2C0 0.895432 0.89543 0 2 0H29.137V215.202H0V2Z" fill="#408D8A"/>
<path d="M392.767 0H653C654.105 0 655 0.895431 655 2V215.202H392.767V0Z" fill="#711EC4"/>
<rect x="29.1371" width="363.63" height="215.202" fill="#F4B040"/>
<rect x="143.781" y="71.8901" width="366.815" height="214.655" rx="2" fill="#F7F6F1"/>
<path d="M374.957 131.972C374.957 129.211 377.196 126.972 379.957 126.972H382.699C385.461 126.972 387.699 129.211 387.699 131.972V228.111H374.957V131.972ZM349.585 130.633L347.821 131.181C345.612 131.879 343.017 130.907 342.124 129.057C341.695 128.161 341.675 127.171 342.068 126.266C342.523 125.219 343.491 124.4 344.719 124.017L364.612 117.82L367.033 135.545C367.17 136.448 366.916 137.369 366.318 138.133C365.585 139.071 364.409 139.679 363.089 139.804C362.931 139.821 362.754 139.829 362.583 139.829C360.332 139.829 358.421 138.394 358.137 136.497L357.831 133.815C334.841 165.648 281.9 199.766 279.603 201.236C278.823 201.734 277.89 202 276.903 202C275.573 202 274.321 201.51 273.472 200.649C272.691 199.863 272.325 198.859 272.438 197.828C272.557 196.758 273.199 195.774 274.203 195.136C274.741 194.79 327.177 160.893 349.585 130.633ZM359.658 149.436C362.42 149.436 364.658 151.675 364.658 154.436V228.109H351.919V154.436C351.919 151.675 354.158 149.436 356.919 149.436H359.658ZM337.38 172.814C340.141 172.814 342.38 175.052 342.38 177.814V228.111H329.637V177.814C329.637 175.052 331.875 172.814 334.637 172.814H337.38ZM314.338 197.099C317.099 197.099 319.338 199.338 319.338 202.099V228.107H306.597V202.099C306.597 199.338 308.836 197.099 311.597 197.099H314.338ZM289.979 209.248C292.74 209.248 294.979 211.487 294.979 214.248V228.109H282.24V214.248C282.24 211.487 284.478 209.248 287.24 209.248H289.979ZM391.663 235.525C391.663 238.135 389.547 240.251 386.936 240.251H267.326C264.715 240.251 262.599 238.134 262.599 235.524V235.524C262.599 232.913 264.715 230.797 267.326 230.797H386.936C389.547 230.797 391.663 232.914 391.663 235.525V235.525Z" fill="#0A3954"/>
</svg>
