<svg width="562" height="327" viewBox="0 0 562 327" fill="none" xmlns="http://www.w3.org/2000/svg">
<path d="M0 195H152V324H2C0.895432 324 0 323.105 0 322V195Z" fill="#E3706F"/>
<path d="M152 196H562V325C562 326.105 561.105 327 560 327H152V196Z" fill="#BFF1FF"/>
<path d="M0 2C0 0.895429 0.89543 0 2 0H25V196H0V2Z" fill="#408D8A"/>
<path d="M337 0H560C561.105 0 562 0.895431 562 2V196H337V0Z" fill="#711EC4"/>
<rect x="25" width="312" height="196" fill="#F4B040"/>
<rect x="115" y="67" width="334.086" height="195.502" rx="2" fill="#F7F6F1"/>
<path d="M325.333 122.336C325.333 119.574 327.571 117.336 330.333 117.336H331.938C334.699 117.336 336.938 119.574 336.938 122.336V209.45H325.333V122.336ZM302.225 120.67L300.618 121.169C298.606 121.804 296.242 120.919 295.429 119.234C295.039 118.418 295.02 117.517 295.378 116.692C295.793 115.739 296.674 114.992 297.793 114.644L315.911 109L318.116 125.143C318.24 125.965 318.009 126.805 317.464 127.5C316.797 128.354 315.726 128.908 314.524 129.023C314.38 129.037 314.218 129.045 314.063 129.045C312.013 129.045 310.272 127.739 310.014 126.01L309.734 123.568C288.796 152.56 240.579 183.634 238.487 184.973C237.776 185.427 236.927 185.669 236.028 185.669C234.816 185.669 233.676 185.222 232.903 184.439C232.191 183.722 231.858 182.808 231.961 181.87C232.069 180.895 232.654 179.998 233.568 179.417C234.059 179.102 281.816 148.229 302.225 120.67ZM310.953 137.795C313.714 137.795 315.953 140.034 315.953 142.795V209.448H304.35V142.795C304.35 140.034 306.589 137.795 309.35 137.795H310.953ZM290.662 159.087C293.424 159.087 295.662 161.325 295.662 164.087V209.45H284.056V164.087C284.056 161.325 286.295 159.087 289.056 159.087H290.662ZM269.676 181.205C272.438 181.205 274.676 183.444 274.676 186.205V209.447H263.072V186.205C263.072 183.444 265.311 181.205 268.072 181.205H269.676ZM247.491 192.27C250.252 192.27 252.491 194.509 252.491 197.27V209.448H240.888V197.27C240.888 194.509 243.127 192.27 245.888 192.27H247.491ZM340.548 216.202C340.548 218.579 338.62 220.506 336.243 220.506H227.305C224.927 220.506 223 218.579 223 216.201V216.201C223 213.824 224.927 211.896 227.305 211.896H336.243C338.621 211.896 340.548 213.824 340.548 216.202V216.202Z" fill="#0A3954"/>
</svg>
