<svg width="1331" height="287" viewBox="0 0 1331 287" fill="none" xmlns="http://www.w3.org/2000/svg">
<rect y="55.0181" width="598.036" height="230.941" fill="#C4C4C4"/>
<path d="M0 176.73H377.238V285.96H2.00001C0.895439 285.96 0 285.064 0 283.96V176.73Z" fill="#E3706F"/>
<path d="M218.011 223.67L378.228 176.73V287H0.990112L218.011 223.67Z" fill="#FFC2C1"/>
<path d="M378.228 176.73H1330.73V283.96C1330.73 285.064 1329.83 285.96 1328.73 285.96H378.228V176.73Z" fill="#F4B040"/>
<path d="M0 2.92383C0 1.81926 0.89543 0.923828 2 0.923828H56.4372V176.731H0V2.92383Z" fill="#408D8A"/>
<path d="M772.299 2.92383C772.299 1.81926 773.194 0.923828 774.299 0.923828H1328.73C1329.83 0.923828 1330.73 1.81926 1330.73 2.92383V174.731C1330.73 175.835 1329.83 176.731 1328.73 176.731H774.299C773.194 176.731 772.299 175.835 772.299 174.731V2.92383Z" fill="#711EC4"/>
<rect x="56.4371" y="0.923828" width="715.861" height="175.807" fill="#BFF1FF"/>
<rect width="21.8458" height="355.455" transform="matrix(-5.64807e-08 -1 -1 3.3829e-08 1330.73 176.73)" fill="#408D8A"/>
<path d="M1300.87 164.184L1330.73 154.885V176.731H1260.43L1300.87 164.184Z" fill="#BFF1FF"/>
<rect x="355.455" y="56.0583" width="619.819" height="175.807" fill="#F1F1F1"/>
<path d="M691.134 138.405H698.457C700.042 138.405 701.345 137.092 701.345 135.5V128.12C701.345 126.527 700.042 125.215 698.457 125.215H691.134C689.545 125.215 688.253 126.521 688.253 128.12V135.5C688.253 137.092 689.544 138.405 691.134 138.405Z" fill="#0A3954"/>
<path d="M713.74 129.805H722.571C724.485 129.805 726.042 128.232 726.042 126.309V117.413C726.042 115.489 724.485 113.919 722.571 113.919H713.74C711.831 113.919 710.269 115.489 710.269 117.413V126.309C710.269 128.231 711.832 129.805 713.74 129.805Z" fill="#0A3954"/>
<path d="M720.303 159.677H711.47C709.562 159.677 707.999 161.247 707.999 163.175V172.072C707.999 173.986 709.562 175.565 711.47 175.565H720.303C722.207 175.565 723.774 173.986 723.774 172.072V163.175C723.773 161.256 722.207 159.677 720.303 159.677Z" fill="#0A3954"/>
<path d="M735.587 151.918V141.144C735.587 138.813 733.702 136.906 731.388 136.906H720.694C718.385 136.906 716.491 138.813 716.491 141.144V151.918C716.491 154.245 718.385 156.154 720.694 156.154H731.388C733.698 156.154 735.587 154.245 735.587 151.918Z" fill="#0A3954"/>
<path d="M732.983 105.724H737.956C739.027 105.724 739.914 104.835 739.914 103.756V98.7464C739.914 97.6658 739.03 96.7781 737.956 96.7781H732.983C731.917 96.7781 731.029 97.6658 731.029 98.7464V103.755C731.029 104.836 731.917 105.724 732.983 105.724Z" fill="#0A3954"/>
<path d="M750.773 143.61H745.8C744.724 143.61 743.846 144.498 743.846 145.584V150.592C743.846 151.676 744.725 152.566 745.8 152.566H750.773C751.843 152.566 752.722 151.684 752.722 150.592V145.584C752.722 144.498 751.848 143.61 750.773 143.61Z" fill="#0A3954"/>
<path d="M710.103 149.068C711.002 149.068 711.754 148.316 711.754 147.408V143.175C711.754 142.257 711.002 141.509 710.103 141.509H705.895C705.813 141.509 705.77 141.589 705.677 141.606V106.738L673.398 90.6453H664.41V196.589H673.398L705.676 156.355V148.986C705.77 148.995 705.813 149.078 705.895 149.078H710.103V149.068H710.103ZM701.684 154.923L677.391 185.2V97.1148L701.684 109.229V154.923Z" fill="#0A3954"/>
<path d="M740.051 159.677H735.843C734.941 159.677 734.194 160.43 734.194 161.344V165.569C734.194 166.488 734.937 167.24 735.843 167.24H740.042C740.948 167.24 741.695 166.488 741.695 165.569V161.344C741.7 160.43 740.953 159.677 740.051 159.677Z" fill="#0A3954"/>
<path d="M755.455 111.1H741.113C738.012 111.1 735.479 113.656 735.479 116.781V131.226C735.479 134.343 738.012 136.907 741.113 136.907H755.455C758.561 136.907 761.098 134.344 761.098 131.226V116.78C761.098 113.655 758.561 111.1 755.455 111.1Z" fill="#0A3954"/>
</svg>
