<svg width="1331" height="351" viewBox="0 0 1331 351" fill="none" xmlns="http://www.w3.org/2000/svg">
<rect y="66.1961" width="598.036" height="282.607" fill="#C4C4C4"/>
<path d="M0 215.138H377.238V348.803H2.00001C0.895439 348.803 0 347.908 0 346.803V215.138Z" fill="#E3706F"/>
<path d="M218.011 272.578L378.228 215.138V350.076H0.990173L218.011 272.578Z" fill="#FFC2C1"/>
<path d="M378.228 215.138H1330.73V346.803C1330.73 347.908 1329.83 348.803 1328.73 348.803H378.228V215.138Z" fill="#F4B040"/>
<path d="M0 2C0 0.895429 0.89543 0 2 0H56.4372V215.138H0V2Z" fill="#408D8A"/>
<path d="M772.299 2C772.299 0.895429 773.194 0 774.299 0H1328.73C1329.83 0 1330.73 0.895431 1330.73 2V213.138C1330.73 214.242 1329.83 215.138 1328.73 215.138H774.299C773.194 215.138 772.299 214.242 772.299 213.138V2Z" fill="#711EC4"/>
<rect x="56.4371" width="715.861" height="215.138" fill="#BFF1FF"/>
<rect width="26.7331" height="355.455" transform="matrix(-4.61551e-08 -1 -1 4.13971e-08 1330.73 215.138)" fill="#408D8A"/>
<path d="M1300.87 199.784L1330.73 188.405V215.138H1260.43L1300.87 199.784Z" fill="#BFF1FF"/>
<rect x="355" y="67.0762" width="619.819" height="215.138" fill="#F1F1F1"/>
<path d="M650.383 202.207H645.344C640.481 202.207 636.525 206.162 636.525 211.025V231.182C636.525 236.045 640.481 240 645.344 240H650.383C655.246 240 659.201 236.045 659.201 231.182V211.025C659.201 206.162 655.246 202.207 650.383 202.207ZM651.643 231.182C651.643 231.876 651.078 232.441 650.383 232.441H645.344C644.649 232.441 644.084 231.876 644.084 231.182V211.025C644.084 210.331 644.649 209.766 645.344 209.766H650.383C651.078 209.766 651.643 210.331 651.643 211.025V231.182Z" fill="#0A3954"/>
<path d="M620.148 232.441H616.369V205.986C616.369 203.899 614.677 202.207 612.59 202.207H605.031C602.944 202.207 601.252 203.899 601.252 205.986C601.252 208.074 602.944 209.766 605.031 209.766H608.811V232.441H605.031C602.944 232.441 601.252 234.133 601.252 236.221C601.252 238.308 602.944 240 605.031 240H620.148C622.236 240 623.928 238.308 623.928 236.221C623.928 234.133 622.236 232.441 620.148 232.441Z" fill="#0A3954"/>
<path d="M720.93 202.207H715.891C711.028 202.207 707.072 206.162 707.072 211.025V231.182C707.072 236.045 711.028 240 715.891 240H720.93C725.793 240 729.748 236.045 729.748 231.182V211.025C729.748 206.162 725.793 202.207 720.93 202.207ZM722.189 231.182C722.189 231.876 721.625 232.441 720.93 232.441H715.891C715.196 232.441 714.631 231.876 714.631 231.182V211.025C714.631 210.331 715.196 209.766 715.891 209.766H720.93C721.625 209.766 722.189 210.331 722.189 211.025V231.182Z" fill="#0A3954"/>
<path d="M690.695 232.441H686.916V205.986C686.916 203.899 685.224 202.207 683.137 202.207H675.578C673.491 202.207 671.799 203.899 671.799 205.986C671.799 208.074 673.491 209.766 675.578 209.766H679.357V232.441H675.578C673.491 232.441 671.799 234.133 671.799 236.221C671.799 238.308 673.491 240 675.578 240H690.695C692.783 240 694.475 238.308 694.475 236.221C694.475 234.133 692.783 232.441 690.695 232.441Z" fill="#0A3954"/>
<path d="M650.383 156.604H645.344C640.481 156.604 636.525 160.559 636.525 165.422V185.578C636.525 190.441 640.481 194.396 645.344 194.396H650.383C655.246 194.396 659.201 190.441 659.201 185.578V165.422C659.201 160.559 655.246 156.604 650.383 156.604ZM651.643 185.578C651.643 186.273 651.078 186.838 650.383 186.838H645.344C644.649 186.838 644.084 186.273 644.084 185.578V165.422C644.084 164.727 644.649 164.162 645.344 164.162H650.383C651.078 164.162 651.643 164.727 651.643 165.422V185.578Z" fill="#0A3954"/>
<path d="M620.148 186.838H616.369V160.383C616.369 158.295 614.677 156.604 612.59 156.604H605.031C602.944 156.604 601.252 158.295 601.252 160.383C601.252 162.47 602.944 164.162 605.031 164.162H608.811V186.838H605.031C602.944 186.838 601.252 188.53 601.252 190.617C601.252 192.705 602.944 194.396 605.031 194.396H620.148C622.236 194.396 623.928 192.705 623.928 190.617C623.928 188.53 622.236 186.838 620.148 186.838Z" fill="#0A3954"/>
<path d="M685.656 156.604H680.617C675.754 156.604 671.799 160.559 671.799 165.422V185.578C671.799 190.441 675.754 194.396 680.617 194.396H685.656C690.519 194.396 694.475 190.441 694.475 185.578V165.422C694.475 160.559 690.519 156.604 685.656 156.604ZM686.916 185.578C686.916 186.273 686.351 186.838 685.656 186.838H680.617C679.922 186.838 679.357 186.273 679.357 185.578V165.422C679.357 164.727 679.922 164.162 680.617 164.162H685.656C686.351 164.162 686.916 164.727 686.916 165.422V185.578Z" fill="#0A3954"/>
<path d="M725.969 186.838H722.189V160.383C722.189 158.295 720.498 156.604 718.41 156.604H710.852C708.764 156.604 707.072 158.295 707.072 160.383C707.072 162.47 708.764 164.162 710.852 164.162H714.631V186.838H710.852C708.764 186.838 707.072 188.53 707.072 190.617C707.072 192.705 708.764 194.396 710.852 194.396H725.969C728.056 194.396 729.748 192.705 729.748 190.617C729.748 188.53 728.056 186.838 725.969 186.838Z" fill="#0A3954"/>
<path d="M615.109 111H610.07C605.207 111 601.252 114.955 601.252 119.818V139.975C601.252 144.838 605.207 148.793 610.07 148.793H615.109C619.972 148.793 623.928 144.838 623.928 139.975V119.818C623.928 114.955 619.972 111 615.109 111ZM616.369 139.975C616.369 140.669 615.804 141.234 615.109 141.234H610.07C609.375 141.234 608.811 140.669 608.811 139.975V119.818C608.811 119.124 609.375 118.559 610.07 118.559H615.109C615.804 118.559 616.369 119.124 616.369 119.818V139.975Z" fill="#0A3954"/>
<path d="M655.422 141.234H651.643V114.779C651.643 112.692 649.951 111 647.863 111H640.305C638.217 111 636.525 112.692 636.525 114.779C636.525 116.867 638.217 118.559 640.305 118.559H644.084V141.234H640.305C638.217 141.234 636.525 142.926 636.525 145.014C636.525 147.101 638.217 148.793 640.305 148.793H655.422C657.509 148.793 659.201 147.101 659.201 145.014C659.201 142.926 657.509 141.234 655.422 141.234Z" fill="#0A3954"/>
<path d="M720.93 111H715.891C711.028 111 707.072 114.955 707.072 119.818V139.975C707.072 144.838 711.028 148.793 715.891 148.793H720.93C725.793 148.793 729.748 144.838 729.748 139.975V119.818C729.748 114.955 725.793 111 720.93 111ZM722.189 139.975C722.189 140.669 721.625 141.234 720.93 141.234H715.891C715.196 141.234 714.631 140.669 714.631 139.975V119.818C714.631 119.124 715.196 118.559 715.891 118.559H720.93C721.625 118.559 722.189 119.124 722.189 119.818V139.975Z" fill="#0A3954"/>
<path d="M690.695 141.234H686.916V114.779C686.916 112.692 685.224 111 683.137 111H675.578C673.491 111 671.799 112.692 671.799 114.779C671.799 116.867 673.491 118.559 675.578 118.559H679.357V141.234H675.578C673.491 141.234 671.799 142.926 671.799 145.014C671.799 147.101 673.491 148.793 675.578 148.793H690.695C692.783 148.793 694.475 147.101 694.475 145.014C694.475 142.926 692.783 141.234 690.695 141.234Z" fill="#0A3954"/>
</svg>
