<svg width="1247" height="269" viewBox="0 0 1247 269" fill="none" xmlns="http://www.w3.org/2000/svg">
<rect y="51.6145" width="560.408" height="216.411" fill="#C4C4C4"/>
<path d="M0 165.669H353.502V268.025H2C0.89543 268.025 0 267.13 0 266.025V165.669Z" fill="#E3706F"/>
<path d="M204.294 209.655L354.43 165.669V269H0.927856L204.294 209.655Z" fill="#FFC2C1"/>
<path d="M354.43 165.669H1247V266.025C1247 267.13 1246.1 268.025 1245 268.025H354.43V165.669Z" fill="#F4B040"/>
<path d="M0 2.92383C0 1.81926 0.895431 0.923828 2 0.923828H52.8862V165.669H0V2.92383Z" fill="#408D8A"/>
<path d="M723.705 2.92383C723.705 1.81926 724.601 0.923828 725.705 0.923828H1245C1246.1 0.923828 1247 1.81926 1247 2.92383V163.669C1247 164.773 1246.1 165.669 1245 165.669H725.705C724.601 165.669 723.705 164.773 723.705 163.669V2.92383Z" fill="#711EC4"/>
<rect x="52.8861" y="0.923828" width="670.819" height="164.745" fill="#BFF1FF"/>
<rect width="20.4713" height="333.09" transform="matrix(-5.64807e-08 -1 -1 3.3829e-08 1247 165.669)" fill="#408D8A"/>
<path d="M1219.02 153.912L1247 145.198V165.669H1181.12L1219.02 153.912Z" fill="#BFF1FF"/>
<rect x="333.09" y="52.5894" width="580.82" height="164.745" fill="#F1F1F1"/>
<path d="M605.41 129.754H611.825C613.213 129.754 614.354 128.524 614.354 127.033V120.116C614.354 118.624 613.213 117.395 611.825 117.395H605.41C604.017 117.395 602.886 118.618 602.886 120.116V127.033C602.886 128.524 604.017 129.754 605.41 129.754Z" fill="#0A3954"/>
<path d="M625.212 121.696H632.948C634.624 121.696 635.988 120.222 635.988 118.419V110.084C635.988 108.28 634.624 106.809 632.948 106.809H625.212C623.54 106.809 622.172 108.28 622.172 110.084V118.419C622.172 120.221 623.54 121.696 625.212 121.696Z" fill="#0A3954"/>
<path d="M630.961 149.689H623.223C621.552 149.689 620.183 151.16 620.183 152.966V161.304C620.183 163.097 621.552 164.576 623.223 164.576H630.961C632.629 164.576 634.001 163.097 634.001 161.304V152.966C634.001 151.168 632.629 149.689 630.961 149.689Z" fill="#0A3954"/>
<path d="M644.349 142.417V132.321C644.349 130.137 642.698 128.35 640.671 128.35H631.304C629.281 128.35 627.621 130.137 627.621 132.321V142.417C627.621 144.598 629.281 146.387 631.304 146.387H640.671C642.694 146.387 644.349 144.598 644.349 142.417Z" fill="#0A3954"/>
<path d="M642.068 99.1298H646.424C647.362 99.1298 648.14 98.2972 648.14 97.2852V92.5913C648.14 91.5787 647.365 90.7468 646.424 90.7468H642.068C641.134 90.7468 640.357 91.5787 640.357 92.5913V97.2845C640.357 98.2979 641.134 99.1298 642.068 99.1298Z" fill="#0A3954"/>
<path d="M657.651 134.632H653.295C652.353 134.632 651.583 135.464 651.583 136.482V141.175C651.583 142.19 652.353 143.024 653.295 143.024H657.651C658.589 143.024 659.359 142.198 659.359 141.175V136.482C659.359 135.464 658.593 134.632 657.651 134.632Z" fill="#0A3954"/>
<path d="M622.026 139.747C622.814 139.747 623.472 139.042 623.472 138.191V134.224C623.472 133.364 622.814 132.664 622.026 132.664H618.34C618.268 132.664 618.231 132.738 618.149 132.754V100.08L589.874 85H582V184.278H589.874L618.148 146.575V139.67C618.23 139.678 618.268 139.756 618.339 139.756H622.025V139.747H622.026ZM614.651 145.233L593.371 173.605V91.0625L614.651 102.415V145.233Z" fill="#0A3954"/>
<path d="M648.26 149.689H644.574C643.783 149.689 643.129 150.394 643.129 151.25V155.21C643.129 156.07 643.779 156.775 644.574 156.775H648.251C649.045 156.775 649.7 156.07 649.7 155.21V151.25C649.704 150.394 649.05 149.689 648.26 149.689Z" fill="#0A3954"/>
<path d="M661.753 104.167H649.189C646.473 104.167 644.254 106.563 644.254 109.491V123.027C644.254 125.949 646.473 128.351 649.189 128.351H661.753C664.473 128.351 666.696 125.949 666.696 123.027V109.491C666.696 106.562 664.473 104.167 661.753 104.167Z" fill="#0A3954"/>
</svg>
