<svg width="76" height="18" viewBox="0 0 76 18" fill="none" xmlns="http://www.w3.org/2000/svg">
<path d="M3.904 2.976C5.568 2.976 6.90133 3.36533 7.904 4.144C8.91733 4.912 9.424 6.34133 9.424 8.432C9.424 10.4693 8.91733 11.9093 7.904 12.752C6.90133 13.584 5.68 14 4.24 14H1.6V2.976H3.904ZM3.12 4.192V12.8H4.352C5.376 12.8 6.208 12.4853 6.848 11.856C7.488 11.2267 7.808 10.0853 7.808 8.432C7.808 7.26933 7.64267 6.37867 7.312 5.76C6.98133 5.13067 6.56 4.71467 6.048 4.512C5.536 4.29867 4.93333 4.192 4.24 4.192H3.12ZM13.2889 5.568V14H11.8169V5.568H13.2889ZM12.5369 1.52C12.8462 1.52 13.0969 1.616 13.2889 1.808C13.4809 2 13.5769 2.24 13.5769 2.528C13.5769 2.816 13.4809 3.056 13.2889 3.248C13.0969 3.42933 12.8462 3.52 12.5369 3.52C12.2382 3.52 11.9929 3.42933 11.8009 3.248C11.6089 3.056 11.5129 2.816 11.5129 2.528C11.5129 2.24 11.6089 2 11.8009 1.808C11.9929 1.616 12.2382 1.52 12.5369 1.52ZM22.5245 5.568L19.6605 14H17.8845L14.9725 5.568H16.5725L18.7805 12.688L20.9725 5.568H22.5245ZM30.513 9.536C30.513 9.78133 30.5023 10.032 30.481 10.288H25.105C25.169 11.216 25.4037 11.8987 25.809 12.336C26.2143 12.7733 26.737 12.992 27.377 12.992C27.7823 12.992 28.1557 12.9333 28.497 12.816C28.8383 12.6987 29.1957 12.512 29.569 12.256L30.209 13.136C29.313 13.84 28.3317 14.192 27.265 14.192C26.0917 14.192 25.1743 13.808 24.513 13.04C23.8623 12.272 23.537 11.216 23.537 9.872C23.537 8.99733 23.6757 8.224 23.953 7.552C24.241 6.86933 24.6463 6.336 25.169 5.952C25.7023 5.568 26.3263 5.376 27.041 5.376C28.161 5.376 29.0197 5.744 29.617 6.48C30.2143 7.216 30.513 8.23467 30.513 9.536ZM29.057 9.104C29.057 8.272 28.8917 7.63733 28.561 7.2C28.2303 6.76267 27.7343 6.544 27.073 6.544C25.8677 6.544 25.2117 7.42933 25.105 9.2H29.057V9.104ZM38.5701 5.568V14H37.0981V5.568H38.5701ZM37.8181 1.52C38.1275 1.52 38.3781 1.616 38.5701 1.808C38.7621 2 38.8581 2.24 38.8581 2.528C38.8581 2.816 38.7621 3.056 38.5701 3.248C38.3781 3.42933 38.1275 3.52 37.8181 3.52C37.5195 3.52 37.2741 3.42933 37.0821 3.248C36.8901 3.056 36.7941 2.816 36.7941 2.528C36.7941 2.24 36.8901 2 37.0821 1.808C37.2741 1.616 37.5195 1.52 37.8181 1.52ZM45.5818 5.376C46.3498 5.376 46.9471 5.60533 47.3738 6.064C47.8111 6.52267 48.0298 7.152 48.0298 7.952V14H46.5578V8.16C46.5578 7.56267 46.4458 7.14133 46.2218 6.896C45.9978 6.65067 45.6671 6.528 45.2298 6.528C44.7818 6.528 44.3871 6.656 44.0458 6.912C43.7044 7.168 43.3844 7.536 43.0858 8.016V14H41.6138V5.568H42.8778L43.0058 6.816C43.3044 6.368 43.6724 6.016 44.1098 5.76C44.5578 5.504 45.0484 5.376 45.5818 5.376Z" fill="#0A3954"/>
<line x1="61.5242" y1="8.66147" x2="75.4058" y2="8.66147" stroke="#0A3954"/>
<line x1="70.3352" y1="3.46885" x2="75.2545" y2="8.38816" stroke="#0A3954"/>
<line y1="-0.5" x2="6.95695" y2="-0.5" transform="matrix(0.707107 -0.707107 -0.707107 -0.707107 69.9817 13.0461)" stroke="#0A3954"/>
</svg>
