<svg width="655" height="356" viewBox="0 0 655 356" fill="none" xmlns="http://www.w3.org/2000/svg">
<rect x="-1" y="67.8754" width="285.157" height="288.125" fill="#711EC4"/>
<path d="M-1 218.864H515.846V356H1.00002C-0.104554 356 -1 355.104 -1 354V218.864Z" fill="#F4B040"/>
<path d="M499.754 67.4985H655V354C655 355.105 654.105 356 653 356H499.754V67.4985Z" fill="#BFF1FF"/>
<path d="M-1 199.229H145V218.826H-1V199.229Z" fill="#408D8A"/>
<path d="M-1 199.471H16.8223L-1 218.864V199.471Z" fill="#711EC4"/>
<path d="M266 0H652.697C653.802 0 654.697 0.89543 654.697 2V88.1835H266V0Z" fill="#408D8A"/>
<path d="M-1 2C-1 0.895431 -0.104569 0 1 0H266.334V112.202H-1V2Z" fill="#711EC4"/>
<rect x="144" y="71" width="366.815" height="214.655" rx="2" fill="#F1F1F1"/>
<circle cx="327.523" cy="178.523" r="55.5229" fill="#0A3954"/>
</svg>
